<?xml version="1.0" standalone="no"?>
<!DOCTYPE svg PUBLIC "-//W3C//DTD SVG 20010904//EN"
 "http://www.w3.org/TR/2001/REC-SVG-20010904/DTD/svg10.dtd">
<svg version="1.0" xmlns="http://www.w3.org/2000/svg"
 width="40.000000pt" height="40.000000pt" viewBox="0 0 40.000000 40.000000"
 preserveAspectRatio="xMidYMid meet">
<metadata>
Created by potrace 1.13, written by Peter Selinger 2001-2015
</metadata>
<g transform="translate(0.000000,40.000000) scale(0.100000,-0.100000)"
fill="#000000" stroke="none">
<path d="M162 350 c-45 -10 -100 -65 -113 -112 -20 -78 36 -170 115 -188 112
-25 216 80 186 189 -11 43 -78 111 -109 111 -11 0 -25 2 -33 4 -7 2 -28 0 -46
-4z m24 -77 c13 -17 15 -17 29 1 8 11 18 17 21 13 4 -4 1 -13 -6 -22 -11 -13
-8 -15 19 -15 l31 0 0 -60 0 -60 -80 0 -80 0 0 60 0 60 32 0 c25 0 29 3 20 12
-13 13 -16 28 -6 28 4 0 13 -8 20 -17z"/>
</g>
</svg>
